<?xml version="1.0" encoding="UTF-8"?>
<svg version="1.1" xmlns="http://www.w3.org/2000/svg" width="1400" height="1400">
<path d="M0 0 C462 0 924 0 1400 0 C1400 462 1400 924 1400 1400 C938 1400 476 1400 0 1400 C0 938 0 476 0 0 Z " fill="#F9F9F9" transform="translate(0,0)"/>
<path d="M0 0 C1.20130376 -0.00320648 2.40260752 -0.00641296 3.64031443 -0.0097166 C6.97232785 -0.01658343 10.30411775 -0.01451629 13.63611864 -0.00866088 C17.26207076 -0.00448664 20.88800243 -0.01189476 24.51394957 -0.01781338 C30.86818899 -0.02657624 37.22239617 -0.02788719 43.57664013 -0.02431011 C53.02574235 -0.01900483 62.47481335 -0.02509667 71.92391218 -0.03339304 C89.78159254 -0.04864093 107.63925872 -0.05033729 125.49694423 -0.04787002 C139.28623138 -0.04603797 153.07551388 -0.04779511 166.86480045 -0.05209446 C168.84530135 -0.05269686 170.82580224 -0.05329806 172.80630314 -0.05389806 C175.79066681 -0.05480531 178.77503049 -0.05571397 181.75939416 -0.05663041 C209.51012092 -0.06506121 237.26084593 -0.06939477 265.01157379 -0.06522369 C266.58111309 -0.06498913 266.58111309 -0.06498913 268.18236026 -0.06474983 C273.48582295 -0.06394403 278.78928564 -0.06309826 284.09274832 -0.06223653 C285.14604772 -0.06206544 286.19934711 -0.06189435 287.28456467 -0.06171808 C289.41459242 -0.06137142 291.54462018 -0.06102289 293.67464793 -0.06067249 C326.8193192 -0.05531505 359.96396387 -0.06324584 393.10863018 -0.08170605 C430.34052438 -0.10241835 467.57240211 -0.11315022 504.80430239 -0.10913056 C508.77361595 -0.10873521 512.74292952 -0.10837366 516.71224308 -0.10803318 C517.68959996 -0.10794245 518.66695685 -0.10785172 519.67393061 -0.10775824 C534.43330184 -0.10659187 549.19265643 -0.11324356 563.95202351 -0.1238451 C580.73637705 -0.13588882 597.52069394 -0.13746562 614.30504803 -0.12505493 C623.69873619 -0.11842006 633.09233673 -0.12007187 642.48601791 -0.13364345 C648.7613458 -0.14187901 655.03660796 -0.13920202 661.31193049 -0.12766818 C664.88699551 -0.12140289 668.46188938 -0.11983371 672.03694461 -0.13153151 C675.89170493 -0.14402836 679.74620432 -0.13323752 683.60096741 -0.12025452 C684.70566005 -0.12756386 685.81035269 -0.13487321 686.94852087 -0.14240405 C703.24246821 -0.028478 715.55704619 5.84212393 726.98924541 17.25447559 C727.85549541 18.10332325 727.85549541 18.10332325 728.73924541 18.96931934 C738.95960551 29.85506746 741.2996729 43.04829513 741.24651432 57.37989807 C741.25002039 58.58145689 741.25352647 59.7830157 741.25713879 61.02098539 C741.26482652 64.34907096 741.2636082 67.67693481 741.25858325 71.00501092 C741.25530854 74.62849141 741.26360586 78.25194878 741.2704016 81.87542182 C741.28069863 88.22385588 741.28354591 94.57225944 741.28148937 100.92070103 C741.27843863 110.36131948 741.28676501 119.80190421 741.29723862 129.24251611 C741.31658058 147.08515132 741.32220692 164.92777504 741.32335274 182.7704195 C741.32427183 196.54964576 741.32838855 210.32886751 741.33475399 224.10809231 C741.33654908 228.07446807 741.33832871 232.04084384 741.34010375 236.00721961 C741.34076689 237.48630124 741.34076689 237.48630124 741.34144343 238.9952633 C741.35375189 266.73134139 741.36164455 294.46741791 741.36075687 322.20349884 C741.36072572 323.2492167 741.36069456 324.29493456 741.36066246 325.37234085 C741.36049624 330.67246882 741.36029816 335.9725968 741.36009304 341.27272477 C741.36003321 342.85165996 741.36003321 342.85165996 741.35997216 344.46249284 C741.35989129 346.59115412 741.35980769 348.71981541 741.35972138 350.84847669 C741.35849589 383.96649323 741.37350869 417.08446882 741.40086651 450.20247364 C741.43159069 487.41096604 741.4487988 524.61943154 741.44694006 561.82793742 C741.4467908 565.79588497 741.44669339 569.76383251 741.44663143 573.73178005 C741.44659647 575.19729222 741.44659647 575.19729222 741.4465608 576.6924107 C741.44649927 592.41171495 741.45926837 608.13098363 741.47649596 623.8502773 C741.49345347 639.64996327 741.49542534 655.44959723 741.48227732 671.24928727 C741.47488899 680.63348934 741.47854263 690.01753336 741.498162 699.40171867 C741.51016745 705.67451545 741.50756465 711.94719784 741.493221 718.21998939 C741.48546276 721.79117004 741.48389209 725.362045 741.5001357 728.93320402 C741.59143758 750.42384635 740.51977975 767.66448049 725.25487041 784.15291309 C712.22263533 796.2414346 696.98107484 799.57847969 679.74545956 799.50895119 C678.55539964 799.51215767 677.36533972 799.51536414 676.13921738 799.51866779 C672.85272578 799.52551125 669.56638162 799.52348265 666.27989272 799.51761206 C662.69798174 799.51342463 659.11609112 799.52085338 655.53418517 799.52676457 C649.26180428 799.53551332 642.98945605 799.5368434 636.71707058 799.5332613 C627.38952471 799.52794852 618.06201039 799.53405541 608.73446796 799.54234423 C591.10509264 799.55757986 573.4757317 799.55928973 555.84635118 799.5568212 C542.23165528 799.55498806 528.6169641 799.55674861 515.00226879 799.56104565 C513.04577219 799.56164805 511.08927559 799.56224925 509.13277899 799.56284925 C506.18446297 799.56375651 503.23614695 799.56466518 500.28783093 799.5655816 C472.87754807 799.57401057 445.46726697 799.57834723 418.05698299 799.57417488 C417.02378526 799.5740185 415.99058754 799.57386213 414.92608078 799.57370101 C409.68951481 799.57289524 404.45294885 799.57204947 399.21638289 799.57118771 C397.65640679 799.57093108 397.65640679 799.57093108 396.06491602 799.57066926 C393.96181572 799.57032261 391.85871541 799.56997408 389.75561511 799.56962368 C357.03335101 799.5642668 324.31111386 799.57219618 291.58885479 799.59065723 C254.81798894 799.61137815 218.04713978 799.62209975 181.27626777 799.61808175 C177.35467355 799.61768641 173.43307932 799.61732486 169.5114851 799.61698437 C168.06311137 799.61684827 168.06311137 799.61684827 166.58547756 799.61670942 C152.01568614 799.61554396 137.44591159 799.62218789 122.87612438 799.63279629 C106.30349308 799.64485073 89.73089891 799.64640444 73.15826705 799.63400612 C63.88760234 799.62738074 54.61702644 799.62900117 45.34636884 799.64259463 C39.14804579 799.65084888 32.94978917 799.64812892 26.7514715 799.63661937 C23.22372127 799.6303726 19.69614413 799.62873693 16.16840401 799.6404827 C-24.71472743 799.74915693 -24.71472743 799.74915693 -41.72169209 783.60603809 C-48.06666979 777.08781868 -52.08812047 770.87477015 -55.01075459 762.25447559 C-55.40262959 761.20260059 -55.79450459 760.15072559 -56.19825459 759.06697559 C-58.25749641 751.93883083 -58.15490685 744.86946531 -58.14497566 737.50567436 C-58.14850401 735.72795694 -58.14850401 735.72795694 -58.15210363 733.91432604 C-58.15761565 730.6229962 -58.15866672 727.33171976 -58.15782622 724.04038903 C-58.15799608 720.46014077 -58.16390626 716.87990119 -58.16906708 713.29965729 C-58.17838508 706.19782581 -58.18231378 699.09600057 -58.18458605 691.99416375 C-58.1875502 683.48770916 -58.19624885 674.98126282 -58.20500033 666.47481256 C-58.22583685 645.91464776 -58.23631321 625.35448154 -58.24512994 604.79430865 C-58.24933751 595.06666165 -58.25455935 585.33901527 -58.25981447 575.6113688 C-58.27770382 542.30843092 -58.29269963 509.00549286 -58.30013466 475.70255089 C-58.30060941 473.61208924 -58.3010853 471.52162758 -58.30156232 469.43116593 C-58.3017987 468.394493 -58.30203507 467.35782007 -58.30227861 466.28973281 C-58.3034798 461.03750188 -58.30469525 455.78527096 -58.3059206 450.53304005 C-58.30616075 449.49072251 -58.3064009 448.44840497 -58.30664833 447.37450206 C-58.31454085 413.58183646 -58.33797216 379.78920597 -58.37047654 345.99655571 C-58.4047843 310.2637918 -58.42448666 274.53104843 -58.4277789 238.79826778 C-58.42819643 234.87462738 -58.428676 230.950987 -58.42920208 227.02734661 C-58.42932527 226.06124555 -58.42944846 225.09514448 -58.42957539 224.09976762 C-58.43190619 208.561133 -58.44755939 193.0225392 -58.46804393 177.48391911 C-58.48831269 161.86095046 -58.49377424 146.23803076 -58.48427329 130.6150514 C-58.4790625 121.33792183 -58.48491589 112.06095542 -58.50680796 102.78384938 C-58.52033963 96.57980603 -58.51921821 90.37587469 -58.50640601 84.17183016 C-58.4995251 80.64151778 -58.4987851 77.11151676 -58.5159661 73.5812325 C-58.60494082 51.17424817 -57.69323525 31.69171101 -41.50294209 14.54744434 C-29.63047256 3.62402802 -15.74578134 -0.06226957 0 0 Z " fill="#A50064" transform="translate(358.0107545852661,300.7455244064331)"/>
<path d="M0 0 C18.51936786 -0.5591013 37.95577333 3.41482129 52.76171875 15.1875 C54.47341719 16.36612958 54.47341719 16.36612958 56.41674805 15.8371582 C59.88914096 14.71483768 62.89954392 12.69597009 66.0234375 10.84375 C72.6556169 7.02267011 79.07128138 4.06678861 86.5234375 2.15625 C87.73386719 1.82173828 87.73386719 1.82173828 88.96875 1.48046875 C111.04278765 -3.6055556 132.24808353 1.23852737 151.5234375 12.15625 C152.52117187 12.70152344 153.51890625 13.24679687 154.546875 13.80859375 C168.53863623 22.00720455 178.30275994 34.66473116 185.7109375 48.84375 C186.03223633 49.44219727 186.35353516 50.04064453 186.68457031 50.65722656 C192.72424642 62.71784142 194.11511563 75.08158568 193.97753906 88.36303711 C193.97640726 89.92187979 193.97705092 91.48072459 193.97930908 93.03956604 C193.98044419 97.22055556 193.95713301 101.40107436 193.92901325 105.58195567 C193.90379602 109.97010377 193.90164174 114.35826584 193.89691162 118.74647522 C193.88454098 127.0334147 193.85180052 135.32013995 193.81151366 143.60698563 C193.76661053 153.05089609 193.74476256 162.49481746 193.72473192 171.93880832 C193.6830617 191.34476788 193.60978446 210.75043426 193.5234375 230.15625 C171.7434375 230.15625 149.9634375 230.15625 127.5234375 230.15625 C127.48605469 219.48152344 127.44867187 208.80679688 127.41015625 197.80859375 C127.37988406 191.05011717 127.34886304 184.29165781 127.31445312 177.53320312 C127.25996352 166.80348261 127.20855074 156.07380992 127.17700195 145.34399414 C127.15401103 137.52951435 127.12060076 129.71516003 127.07473594 121.90077978 C127.05081845 117.76401862 127.03208003 113.62738161 127.02582359 109.4905529 C127.01976604 105.59416311 126.99974217 101.69809095 126.96916199 97.80181885 C126.96039248 96.37444326 126.95665693 94.94702614 126.95842934 93.51962471 C127.15139837 82.21439533 127.15139837 82.21439533 122.09375 72.44921875 C116.75196794 68.36347734 112.57348323 66.61695727 105.8671875 66.7734375 C100.57234132 67.63826238 96.80039184 70.8456916 93.1484375 74.59375 C90.11321202 79.3800671 89.27373307 83.84861427 89.2449646 89.45846558 C89.23380112 90.70359421 89.22263763 91.94872284 89.21113586 93.23158264 C89.20877131 94.59823578 89.20659559 95.96488926 89.20458984 97.33154297 C89.19528474 98.78069108 89.1851152 100.22983385 89.17414856 101.67897034 C89.14690003 105.60203235 89.13171446 109.52505856 89.11872053 113.44819021 C89.10306742 117.5521819 89.07628416 121.65610072 89.0506897 125.76004028 C89.00394047 133.52653464 88.96717772 141.29304276 88.93401682 149.05960572 C88.88861327 159.55802398 88.82775474 170.05635196 88.76776886 180.55469513 C88.67370416 197.08850145 88.60026421 213.62233378 88.5234375 230.15625 C66.7434375 230.15625 44.9634375 230.15625 22.5234375 230.15625 C22.48476563 213.91019531 22.48476563 213.91019531 22.4453125 197.3359375 C22.42015141 190.48175265 22.39398766 183.62759604 22.36328125 176.7734375 C22.31471082 165.88997583 22.27027917 155.0066081 22.25244141 144.12304688 C22.23943181 136.19685096 22.21248493 128.27084573 22.16882443 120.3447572 C22.14619394 116.14818674 22.13052776 111.95185159 22.13155365 107.75521469 C22.13229933 103.80376276 22.11438591 99.85283132 22.08226967 95.90151405 C22.07376323 94.45275687 22.07202584 93.00394136 22.07763481 91.55517006 C22.08428386 89.57353011 22.06397794 87.59185488 22.04241943 85.61032104 C22.03873226 84.50232588 22.03504509 83.39433071 22.03124619 82.25275993 C21.22524037 77.33790698 18.68388431 74.22743167 15.0859375 70.90625 C9.78568965 67.28656854 4.88461921 66.11725699 -1.4765625 67.15625 C-7.27242402 69.62561354 -11.63696117 73.47704734 -14.4765625 79.15625 C-14.58246008 81.14514881 -14.62322054 83.13762049 -14.63478088 85.12930298 C-14.6445697 86.40258957 -14.65435852 87.67587616 -14.66444397 88.98774719 C-14.67034855 90.40670739 -14.67615897 91.82566798 -14.68188477 93.24462891 C-14.69146062 94.73259251 -14.70147052 96.22055337 -14.71188354 97.70851135 C-14.73897044 101.75576703 -14.75995947 105.80303441 -14.77988553 109.85033083 C-14.80172178 114.07711208 -14.829122 118.30385709 -14.85594177 122.53060913 C-14.90590065 130.53807293 -14.9508276 138.5455568 -14.99396414 146.55305994 C-15.05253047 157.37112595 -15.11883446 168.18914433 -15.18471432 179.00716782 C-15.28833897 196.0568298 -15.38159489 213.10653251 -15.4765625 230.15625 C-37.2565625 230.15625 -59.0365625 230.15625 -81.4765625 230.15625 C-81.56709951 209.96231878 -81.64068167 189.76855366 -81.68381119 169.57447052 C-81.70437543 160.19654538 -81.73237764 150.81875596 -81.77832031 141.44091797 C-81.81837712 133.26055761 -81.84403984 125.0802956 -81.85291648 116.89983988 C-81.85809956 112.57433286 -81.87015122 108.24910706 -81.89948273 103.9236908 C-81.92695089 99.8393573 -81.93494529 95.75541663 -81.92899323 91.67099953 C-81.93007962 90.18447027 -81.93784453 88.6979257 -81.9533844 87.21147728 C-82.08493585 73.96044779 -80.15024871 60.72408758 -73.7890625 48.90625 C-73.4480249 48.25132568 -73.1069873 47.59640137 -72.75561523 46.92163086 C-61.68002826 26.29595755 -44.01136777 11.34774812 -21.828125 3.9375 C-14.50106275 1.75031724 -7.61693907 0.34233434 0 0 Z " fill="#FEFDFE" transform="translate(511.4765625,445.84375)"/>
<path d="M0 0 C3.32052316 1.9891647 3.32052316 1.9891647 6.96875 2.63671875 C9.28662739 1.49401996 11.35951845 0.32278497 13.53125 -1.05078125 C19.50029062 -4.63841933 25.30897409 -7.26936269 31.96875 -9.36328125 C33.18824341 -9.76208496 33.18824341 -9.76208496 34.43237305 -10.16894531 C41.72020825 -12.37826893 48.50336059 -12.87011472 56.09375 -12.80078125 C57.28009033 -12.79175781 58.46643066 -12.78273438 59.6887207 -12.7734375 C81.75937508 -12.34100343 99.28088199 -4.61996057 115.96875 9.63671875 C116.64292969 10.2090625 117.31710937 10.78140625 118.01171875 11.37109375 C123.67183085 16.60378319 127.77345251 23.22519199 131.96875 29.63671875 C132.39285156 30.27609375 132.81695313 30.91546875 133.25390625 31.57421875 C141.46107423 44.86517903 143.27335198 58.95632837 143.19580078 74.16235352 C143.19523582 75.72031141 143.19555489 77.27826983 143.19668579 78.83622742 C143.19725697 83.04221919 143.18554084 87.24809568 143.17153788 91.45406079 C143.15899124 95.85827876 143.15785693 100.2624997 143.15548706 104.66673279 C143.14928382 112.99629391 143.1328887 121.32580221 143.11278808 129.65534014 C143.09039303 139.14266441 143.0794266 148.62999128 143.06939721 158.11733544 C143.0485214 177.62383253 143.01185967 197.13025725 142.96875 216.63671875 C121.51875 216.63671875 100.06875 216.63671875 77.96875 216.63671875 C77.93136719 206.10636719 77.89398437 195.57601562 77.85546875 184.7265625 C77.82519632 178.05923158 77.79417513 171.3919181 77.75976562 164.72460938 C77.70527745 154.13974584 77.6538646 143.55493078 77.62231445 132.9699707 C77.59932247 125.26096532 77.56591103 117.55208712 77.52004844 109.84318262 C77.49613237 105.76231256 77.47739302 101.68156833 77.47113609 97.60062981 C77.46507789 93.75676772 77.44505172 89.91322752 77.41447449 86.06948471 C77.40570601 84.66146011 77.40196922 83.25339342 77.40374184 81.84534264 C77.41128434 73.08683499 76.94883778 67.31971383 72.21875 59.88671875 C67.7969722 55.46494095 63.53822522 54.44899139 57.46875 54.19921875 C52.12404989 54.36051285 49.22881023 55.41993858 44.96875 58.63671875 C40.70093598 63.24146546 39.84663279 66.51876145 39.81053162 72.69206238 C39.8007428 73.95830948 39.79095398 75.22455658 39.78086853 76.5291748 C39.77496434 77.93505822 39.76915389 79.34094202 39.76342773 80.74682617 C39.75384906 82.22508518 39.74383899 83.70334146 39.73342896 85.18159485 C39.70637264 89.19780052 39.685367 93.21401796 39.66542697 97.23026443 C39.64357191 101.42634335 39.61618087 105.622386 39.58937073 109.81843567 C39.53943735 117.76565898 39.49450091 125.71290242 39.45134836 133.66016513 C39.39275392 144.39831299 39.32646357 155.13641313 39.26059818 165.87451839 C39.1570134 182.79521971 39.06373096 199.71596189 38.96875 216.63671875 C17.18875 216.63671875 -4.59125 216.63671875 -27.03125 216.63671875 C-27.04542969 205.97359375 -27.05960938 195.31046875 -27.07421875 184.32421875 C-27.0942748 177.57028825 -27.11558694 170.81640045 -27.14257812 164.0625 C-27.18518907 153.34161252 -27.22266073 142.62088293 -27.22680664 131.89990234 C-27.22984981 124.09158749 -27.25038756 116.28354624 -27.29177457 108.47533703 C-27.31307445 104.34236414 -27.32572082 100.20977993 -27.31740379 96.07675171 C-27.30984435 92.18265616 -27.32576209 88.28934688 -27.35931015 84.39539528 C-27.3675208 82.9700534 -27.36732001 81.54463299 -27.35784721 80.11929893 C-27.30219828 70.82192928 -28.10197545 64.81718628 -34.58433819 58.00448608 C-39.00393868 53.82663285 -43.96442855 54.15761477 -49.76171875 54.26171875 C-54.42604431 54.79669516 -57.79030479 56.21530327 -61.03125 59.63671875 C-66.13888917 66.29732378 -65.60883525 73.09312424 -65.57714844 81.20092773 C-65.58589123 82.67978499 -65.59637947 84.1586328 -65.60847473 85.63746643 C-65.63626929 89.63700005 -65.63974088 93.63622401 -65.63875484 97.63584018 C-65.6418896 101.82126678 -65.6675195 106.00655508 -65.69073486 110.19190979 C-65.73125539 118.11068515 -65.75162627 126.02937825 -65.76470876 133.94824129 C-65.78356403 144.65377229 -65.83364521 155.35915465 -65.88195229 166.06458569 C-65.9571982 182.92195564 -65.99080962 199.77914616 -66.03125 216.63671875 C-87.81125 216.63671875 -109.59125 216.63671875 -132.03125 216.63671875 C-132.12176299 196.42551685 -132.19535532 176.21448066 -132.23849869 156.0031271 C-132.25906892 146.61732634 -132.2870828 137.23166104 -132.33300781 127.84594727 C-132.37304605 119.65937057 -132.398723 111.47289203 -132.40760398 103.28622013 C-132.41279016 98.95683285 -132.42486209 94.62772625 -132.45417023 90.29842949 C-132.48160879 86.21163682 -132.48963854 82.12523664 -132.48368073 78.0383606 C-132.4847684 76.54979878 -132.49255135 75.06122186 -132.5080719 73.57274055 C-132.6385296 60.39926829 -130.51313652 48.05509724 -124.21875 36.32421875 C-123.87328125 35.65962646 -123.5278125 34.99503418 -123.171875 34.31030273 C-120.2253598 28.75792943 -116.93425477 23.57185145 -113.03125 18.63671875 C-112.16113281 17.52103516 -112.16113281 17.52103516 -111.2734375 16.3828125 C-102.28852591 5.57460295 -90.87206529 -1.88193648 -78.03125 -7.36328125 C-76.91363281 -7.87117187 -75.79601562 -8.3790625 -74.64453125 -8.90234375 C-50.12005413 -18.39397922 -22.05957807 -12.90858535 0 0 Z " fill="#FEFEFE" transform="translate(562.03125,738.36328125)"/>
<path d="M0 0 C0.69432129 0.03335449 1.38864258 0.06670898 2.10400391 0.10107422 C28.51072607 1.66945716 53.22387281 16.32454234 72 34 C72.60328125 34.53882813 73.2065625 35.07765625 73.828125 35.6328125 C92.47259244 52.97042475 104.2813348 81.19494074 105.3203125 106.25 C106.16378522 140.47787848 96.06561886 171.01320724 72.37719727 196.02392578 C55.3500463 213.43172874 32.88553115 225.49190428 8.6171875 228.60546875 C6.02604094 228.85827451 6.02604094 228.85827451 4 230 C-10.32173074 230.90168294 -25.15250677 231.06017084 -39 227 C-40.76150391 226.52433594 -40.76150391 226.52433594 -42.55859375 226.0390625 C-57.27419566 221.64774002 -71.60836208 214.35603448 -83 204 C-83.83660156 203.28070312 -84.67320312 202.56140625 -85.53515625 201.8203125 C-99.06533246 190.02477426 -108.56405592 176.26755766 -116 160 C-116.36738281 159.21753906 -116.73476563 158.43507813 -117.11328125 157.62890625 C-128.56600779 131.40702656 -127.37807379 100.45260082 -117.91015625 73.94921875 C-106.18058602 44.13162438 -83.33980259 21.1190694 -54.12890625 8.24609375 C-36.65777355 0.9960928 -18.77361234 -0.98023825 0 0 Z " fill="#FEFDFE" transform="translate(863,446)"/>
<path d="M0 0 C29.85228918 -1.2193043 57.30616532 6.60292941 80.42285156 26.11914062 C81.22335937 26.78558594 82.02386719 27.45203125 82.84863281 28.13867188 C99.38110986 42.40853931 112.96506939 62.7342457 118.42285156 84.11914062 C118.7 85.15941406 118.97714844 86.1996875 119.26269531 87.27148438 C123.25091626 104.78657454 123.50224883 124.83002236 118.42285156 142.11914062 C118.2241748 142.81233398 118.02549805 143.50552734 117.82080078 144.21972656 C112.89592216 161.10818673 105.79756568 175.67787539 94.42285156 189.11914062 C93.63007812 190.075625 92.83730469 191.03210938 92.02050781 192.01757812 C74.8037284 211.94104733 50.28724064 224.37808955 24.42285156 228.11914062 C22.56853516 228.39177734 22.56853516 228.39177734 20.67675781 228.66992188 C-9.36943098 232.27081353 -38.25740079 225.14304006 -62.57714844 207.11914062 C-67.16481308 203.38122284 -71.37822982 199.28252538 -75.57714844 195.11914062 C-76.27453125 194.47074219 -76.97191406 193.82234375 -77.69042969 193.15429688 C-96.72819026 175.21405687 -107.64469412 145.38944617 -108.95605469 119.69335938 C-109.18469686 110.06689123 -108.43292357 100.57419746 -106.57714844 91.11914062 C-106.39410156 90.15363281 -106.21105469 89.188125 -106.02246094 88.19335938 C-101.42455364 67.21895509 -90.54366589 49.24040789 -75.57714844 34.11914062 C-74.83851563 33.31992187 -74.09988281 32.52070312 -73.33886719 31.69726562 C-54.26393177 11.47155714 -27.26775946 1.2605785 0 0 Z " fill="#FEFDFE" transform="translate(846.5771484375,725.880859375)"/>
<path d="M0 0 C0.72574219 0.53109375 1.45148438 1.0621875 2.19921875 1.609375 C2.89402344 2.09921875 3.58882812 2.5890625 4.3046875 3.09375 C12.86233947 9.7809674 19.69079455 20.7893322 21.19921875 31.609375 C22.78917683 48.34533999 18.62162325 61.6766635 7.94921875 74.734375 C-0.91433413 84.49768379 -12.38121518 88.97586504 -25.34375 89.84765625 C-41.01428062 90.16677745 -51.77068419 85.37733523 -63.11328125 74.734375 C-66.91935508 70.77483045 -69.39157993 66.51053646 -71.80078125 61.609375 C-72.35765625 60.64 -72.91453125 59.670625 -73.48828125 58.671875 C-78.42110083 47.16196264 -77.99851991 34.26146096 -73.80078125 22.609375 C-67.32093327 8.63116635 -57.33287917 -0.38982328 -43.26953125 -6.48828125 C-29.0726992 -11.44334438 -12.33891183 -8.23953782 0 0 Z " fill="#A50265" transform="translate(880.80078125,520.390625)"/>
<path d="M0 0 C2.95021479 2.13246766 5.50642359 4.35363092 8 7 C8.78890625 7.75990234 8.78890625 7.75990234 9.59375 8.53515625 C17.92481214 17.18500904 21.32974084 28.66609645 21.38500977 40.36962891 C21.10927533 53.70921363 16.11875552 65.50373471 6.9375 75.171875 C-4.8371569 86.35779905 -17.44009287 89.74967198 -33.23046875 89.37109375 C-45.40159106 88.6939832 -55.92443594 82.25211892 -64.28515625 73.6484375 C-75.56370501 60.36715579 -77.21757364 46.80716095 -76 30 C-75.20246041 25.94394152 -73.95112102 22.63041404 -72 19 C-71.55269531 18.13246094 -71.10539063 17.26492188 -70.64453125 16.37109375 C-64.13208657 4.65567718 -54.03819381 -3.17845536 -41.18359375 -7.19140625 C-26.19110856 -10.50804047 -12.65595335 -8.67391071 0 0 Z " fill="#A50164" transform="translate(881,800)"/>
<path d="M0 0 C0.66 0.33 1.32 0.66 2 1 C0.02 3.31 -1.96 5.62 -4 8 C-4.99 7.67 -5.98 7.34 -7 7 C-4.69 4.69 -2.38 2.38 0 0 Z " fill="#AE2274" transform="translate(822,802)"/>
<path d="M0 0 C-1.5830577 4.2742558 -4.50568404 6.26531794 -8 9 C-6.68994234 5.06982701 -4.75047804 0 0 0 Z " fill="#B02677" transform="translate(610,795)"/>
</svg>
